<svg xmlns="http://www.w3.org/2000/svg" xmlns:xlink="http://www.w3.org/1999/xlink" width="500" zoomAndPan="magnify" viewBox="0 0 375 374.999991" height="500" preserveAspectRatio="xMidYMid meet" version="1.0"><defs><g/><clipPath id="db6a407970"><path d="M 16 17 L 358 17 L 358 359 L 16 359 Z M 16 17 " clip-rule="nonzero"/></clipPath><clipPath id="4651e6346d"><path d="M -96.269531 187.84375 L 187.152344 -95.578125 L 470.574219 187.84375 L 187.152344 471.261719 Z M -96.269531 187.84375 " clip-rule="nonzero"/></clipPath><clipPath id="d58a8c137e"><path d="M 100.96875 21.09375 L 113.226562 20.09375 C 162.597656 16.054688 212.210938 16.03125 261.585938 20.019531 L 273.816406 21.003906 C 316.582031 24.460938 350.535156 58.410156 353.988281 101.175781 L 354.976562 113.410156 C 358.964844 162.78125 358.9375 212.398438 354.902344 261.769531 L 353.902344 274.023438 C 350.402344 316.808594 316.445312 350.765625 273.660156 354.265625 L 261.402344 355.265625 C 212.035156 359.304688 162.417969 359.328125 113.046875 355.339844 L 100.8125 354.351562 C 58.046875 350.898438 24.09375 316.949219 20.640625 274.179688 L 19.652344 261.949219 C 15.667969 212.578125 15.691406 162.960938 19.726562 113.589844 L 20.730469 101.335938 C 24.226562 58.550781 58.1875 24.59375 100.96875 21.09375 Z M 100.96875 21.09375 " clip-rule="nonzero"/></clipPath><clipPath id="359d77c02f"><path d="M 0 0 L 342 0 L 342 342 L 0 342 Z M 0 0 " clip-rule="nonzero"/></clipPath><clipPath id="b91e14a536"><path d="M -112.269531 170.84375 L 171.152344 -112.578125 L 454.574219 170.84375 L 171.152344 454.261719 Z M -112.269531 170.84375 " clip-rule="nonzero"/></clipPath><clipPath id="6adb2028a0"><path d="M 84.96875 4.09375 L 97.226562 3.09375 C 146.597656 -0.945312 196.210938 -0.96875 245.585938 3.019531 L 257.816406 4.003906 C 300.582031 7.460938 334.535156 41.410156 337.988281 84.175781 L 338.976562 96.410156 C 342.964844 145.78125 342.9375 195.398438 338.902344 244.769531 L 337.902344 257.023438 C 334.402344 299.808594 300.445312 333.765625 257.660156 337.265625 L 245.402344 338.265625 C 196.035156 342.304688 146.417969 342.328125 97.046875 338.339844 L 84.8125 337.351562 C 42.046875 333.898438 8.09375 299.949219 4.640625 257.179688 L 3.652344 244.949219 C -0.332031 195.578125 -0.308594 145.960938 3.726562 96.589844 L 4.730469 84.335938 C 8.226562 41.550781 42.1875 7.59375 84.96875 4.09375 Z M 84.96875 4.09375 " clip-rule="nonzero"/></clipPath><clipPath id="ce05c72a2f"><rect x="0" width="342" y="0" height="342"/></clipPath><clipPath id="aad09b56cc"><rect x="0" width="253" y="0" height="175"/></clipPath></defs><g clip-path="url(#db6a407970)"><g clip-path="url(#4651e6346d)"><g clip-path="url(#d58a8c137e)"><g transform="matrix(1, 0, 0, 1, 16, 17)"><g clip-path="url(#ce05c72a2f)"><g clip-path="url(#359d77c02f)"><g clip-path="url(#b91e14a536)"><g clip-path="url(#6adb2028a0)"><path fill="#0500ff" d="M -149.890625 170.84375 L 171.152344 -150.199219 L 492.195312 170.84375 L 171.152344 491.886719 Z M -149.890625 170.84375 " fill-opacity="1" fill-rule="nonzero"/></g></g></g></g></g></g></g></g><g transform="matrix(1, 0, 0, 1, 62, 97)"><g clip-path="url(#aad09b56cc)"><g fill="#ffffff" fill-opacity="1"><g transform="translate(0.477049, 126.555307)"><g><path d="M 6.984375 0 L 6.984375 -89.3125 L 28.4375 -89.3125 L 32.453125 -73.09375 L 32.625 -73.09375 C 35.0625 -79.03125 39.039062 -83.65625 44.5625 -86.96875 C 50.09375 -90.28125 56.289062 -91.9375 63.15625 -91.9375 C 77.226562 -91.9375 86.238281 -85.421875 90.1875 -72.390625 L 90.359375 -72.390625 C 93.734375 -79.023438 98.269531 -83.941406 103.96875 -87.140625 C 109.664062 -90.335938 115.890625 -91.9375 122.640625 -91.9375 C 131.484375 -91.9375 138.375 -89.113281 143.3125 -83.46875 C 148.257812 -77.832031 150.734375 -69.957031 150.734375 -59.84375 L 150.734375 0 L 124.03125 0 L 124.03125 -53.90625 C 124.03125 -58.789062 122.75 -62.597656 120.1875 -65.328125 C 117.632812 -68.066406 114.148438 -69.4375 109.734375 -69.4375 C 104.148438 -69.4375 99.816406 -67.570312 96.734375 -63.84375 C 93.648438 -60.125 92.109375 -55.179688 92.109375 -49.015625 L 92.109375 0 L 65.59375 0 L 65.59375 -53.90625 C 65.59375 -58.789062 64.3125 -62.597656 61.75 -65.328125 C 59.195312 -68.066406 55.648438 -69.4375 51.109375 -69.4375 C 45.648438 -69.4375 41.378906 -67.570312 38.296875 -63.84375 C 35.210938 -60.125 33.671875 -55.179688 33.671875 -49.015625 L 33.671875 0 Z M 6.984375 0 "/></g></g></g><g fill="#ffffff" fill-opacity="1"><g transform="translate(149.025789, 126.555307)"><g><path d="M 42.21875 40.125 C 32.800781 40.125 24.132812 38.640625 16.21875 35.671875 C 8.3125 32.710938 2.148438 28.726562 -2.265625 23.71875 L 7.5 4.359375 C 11.21875 8.429688 15.957031 11.71875 21.71875 14.21875 C 27.476562 16.71875 33.554688 17.96875 39.953125 17.96875 C 48.554688 17.96875 55.382812 15.726562 60.4375 11.25 C 65.5 6.769531 68.03125 0.691406 68.03125 -6.984375 L 68.03125 -14.65625 L 67.859375 -14.65625 C 65.066406 -8.957031 61.113281 -4.507812 56 -1.3125 C 50.882812 1.882812 45.242188 3.484375 39.078125 3.484375 C 29.191406 3.484375 21.335938 0.257812 15.515625 -6.1875 C 9.703125 -12.644531 6.796875 -21.164062 6.796875 -31.75 L 6.796875 -89.3125 L 33.328125 -89.3125 L 33.328125 -36.453125 C 33.328125 -31.109375 34.71875 -26.71875 37.5 -23.28125 C 40.289062 -19.851562 44.191406 -18.140625 49.203125 -18.140625 C 54.429688 -18.140625 58.847656 -19.972656 62.453125 -23.640625 C 66.054688 -27.304688 67.859375 -32.046875 67.859375 -37.859375 L 67.859375 -89.3125 L 94.546875 -89.3125 L 94.546875 -6.109375 C 94.546875 3.316406 92.363281 11.488281 88 18.40625 C 83.644531 25.320312 77.570312 30.671875 69.78125 34.453125 C 61.988281 38.234375 52.800781 40.125 42.21875 40.125 Z M 42.21875 40.125 "/></g></g></g></g></g></svg>